<svg width="173" height="36" viewBox="0 0 173 36" fill="none" xmlns="http://www.w3.org/2000/svg">
<path d="M68.6712 9.90915C66.4417 7.70819 63.5309 6.5921 60.6196 6.5921C52.9707 6.5921 49.1617 12.2338 49.1617 18.3411C49.1617 24.0448 52.4752 29.4079 60.6196 29.4079C64.4287 29.4079 67.1228 27.9507 69.2595 25.502V16.3571H59.9694V20.0152H65.5124V23.8591C63.8092 25.223 62.3228 25.5949 60.6196 25.5949C55.2313 25.5949 53.1567 21.9059 53.1567 18.3411C53.1567 13.8771 55.9747 10.3431 60.6196 10.3431C62.5087 10.3431 64.6762 11.1181 66.1318 12.5132L68.6712 9.90915Z" fill="#1D163A"/>
<path d="M87.8088 22.6193C88.3971 16.3263 85.2075 13.1645 80.098 13.1645C75.1432 13.1645 71.9844 16.5124 71.9844 21.1625C71.9844 26.0604 75.112 29.3154 80.3763 29.3154C82.6989 29.3154 85.3311 28.5095 86.9415 26.8354L84.5261 24.4483C83.6591 25.3474 81.8319 25.8743 80.4383 25.8743C77.775 25.8743 76.1338 24.5104 75.8862 22.6193H87.8088ZM75.9486 19.4884C76.506 17.5044 78.178 16.5124 80.2219 16.5124C82.3898 16.5124 83.9382 17.5044 84.1857 19.4884H75.9486Z" fill="#1D163A"/>
<path d="M105.739 28.9119V20.8831C105.739 16.0781 102.859 13.3811 99.2664 13.3811C97.3465 13.3811 95.7981 14.1561 94.2497 15.675L94.0021 13.5981H90.6266V28.9119H94.3736V21.1001C94.3736 18.7754 95.9532 16.8222 98.2755 16.8222C100.691 16.8222 101.961 18.5893 101.961 20.9143V28.9123L105.739 28.9119Z" fill="#1D163A"/>
<path d="M108.588 13.6293V17.07H115.339L108.03 27.331V28.9119H120.882V25.1921H113.79L120.82 15.4271V13.6293H108.588Z" fill="#1D163A"/>
<path d="M135.127 15.737C134.259 14.2182 132.309 13.257 130.265 13.257C125.805 13.2262 122.306 15.9852 122.306 21.255C122.306 26.6181 125.651 29.4079 130.172 29.3771C131.875 29.3462 134.259 28.4779 135.127 26.6801L135.312 28.9119H138.873V13.6289H135.25L135.127 15.737ZM130.605 16.6361C136.551 16.6361 136.551 25.9051 130.605 25.9051C128.097 25.9051 126.084 24.1693 126.084 21.255C126.084 18.3411 128.097 16.6361 130.605 16.6361Z" fill="#1D163A"/>
<path d="M154.048 15.737C153.181 14.2182 151.23 13.257 149.186 13.257C144.727 13.2262 141.228 15.9852 141.228 21.255C141.228 26.6181 144.572 29.4079 149.093 29.3771C150.796 29.3462 153.181 28.4779 154.048 26.6801L154.234 28.9119H157.795V13.6289H154.172L154.048 15.737ZM149.527 16.6361C155.472 16.6361 155.472 25.9051 149.527 25.9051C147.018 25.9051 145.005 24.1693 145.005 21.255C145.005 18.3411 147.018 16.6361 149.527 16.6361Z" fill="#1D163A"/>
<path d="M160.984 13.6293V28.9123H164.762V20.8522C164.762 18.0312 166.59 16.9772 168.572 16.9772C169.81 16.9772 170.523 17.3182 171.297 17.9692L173 14.6833C172.164 13.8463 170.647 13.2262 169.067 13.2262C167.519 13.2262 165.94 13.5052 164.763 15.3963L164.484 13.6293H160.984Z" fill="#1D163A"/>
<path fill-rule="evenodd" clip-rule="evenodd" d="M0 0H11.9872V18H0V0Z" fill="#24FF9C"/>
<path fill-rule="evenodd" clip-rule="evenodd" d="M0 23.9999H17.9808V36H0V23.9999Z" fill="#FFB53D"/>
<path fill-rule="evenodd" clip-rule="evenodd" d="M17.9808 0H35.9619V12.0001H17.9808V0Z" fill="#FF3D5D"/>
<path fill-rule="evenodd" clip-rule="evenodd" d="M35.9619 36H23.9747V18H35.9619V36Z" fill="#8F24FF"/>
</svg>
